<svg xmlns="http://www.w3.org/2000/svg" version="1.1" xmlns:xlink="http://www.w3.org/1999/xlink" width="200" height="200"><svg width="200" height="200" viewBox="0 0 200 200" fill="none" xmlns="http://www.w3.org/2000/svg">
<g clip-path="url(#clip0_105_55)">
<path d="M70.1496 10.0193C56.0151 18.3715 58.178 35.3544 61.7974 47.6044C55.394 47.6044 36.2972 50.6123 34.235 68.485C31.7292 90.2009 49.8258 94.377 61.7974 96.8827C61.7974 101.059 52.6691 118.115 79.3371 126.116C92.7007 130.125 112.468 112.474 116.922 104.4C122.212 104.957 137.524 110.978 147.826 101.059C170.377 79.343 158.405 59.2976 152.002 47.6044C156.178 42.593 165.365 11.5885 141.979 1.66705C123.494 -6.17526 107.456 15.5874 101.053 26.7238C100.496 19.2068 87.8708 -0.452325 70.1496 10.0193Z" fill="#E56D6A"></path>
<path d="M106.545 85.1665C110.722 85.1683 122.414 108.554 125.755 131.104C128.972 152.82 126.59 169.524 126.59 175.371C132.437 165.626 154.152 144.468 161.669 149.479C171.788 156.225 167.516 168.689 146.635 184.558C132.311 195.444 124.084 194.859 121.578 193.746C117.959 197.922 101.534 202.933 91.511 199.592C78.9826 195.416 62.278 175.371 70.6301 164.513C82.1645 149.518 104.874 167.854 110.721 173.701C115.398 178.378 117.681 181.218 118.238 182.888C119.073 168.968 121.298 161.011 118.238 131.939C114.897 100.201 102.369 85.1665 106.545 85.1665ZM93.1809 168.689C82.323 164.513 75.6415 166.184 76.4768 173.701C76.866 177.201 82.4333 185.79 89.8401 189.57C98.5607 194.02 106.545 193.746 114.897 190.405C112.669 184.28 104.039 172.865 93.1809 168.689ZM158.328 161.172C160.834 151.985 145.8 163.678 141.624 167.854C137.448 172.03 126.59 181.218 126.59 186.229C126.591 191.24 155.822 170.36 158.328 161.172Z" fill="#85A865"></path>
<path d="M86 62.6928C86.5483 61.3218 86.8225 59.6766 87.3708 58.3056C90.6607 49.8053 100.256 48.1601 106.562 54.741C110.674 59.1283 111.771 64.3382 109.304 68.9996C106.014 75.0321 100.531 77.7741 94.2248 76.9515C90.9349 76.4031 90.1124 74.2095 88.7416 72.0158C87.9191 68.9996 86.8225 65.9833 86 62.6928Z" fill="#FAC95D"></path>
</g>
<defs>
<clipPath id="SvgjsClipPath1001">
<rect width="200" height="200" fill="white"></rect>
</clipPath>
</defs>
</svg><style>@media (prefers-color-scheme: light) { :root { filter: none; } }
@media (prefers-color-scheme: dark) { :root { filter: none; } }
</style></svg>