<svg xmlns="http://www.w3.org/2000/svg" version="1.1" xmlns:xlink="http://www.w3.org/1999/xlink" width="1300" height="1300"><svg width="1300" height="1300" viewBox="0 0 1300 1300" fill="none" xmlns="http://www.w3.org/2000/svg">
<path d="M875 364.35C875 523.2 793.8 624.95 650 624.95C506.2 624.95 425 523.25 425 364.4C425 337.4 428.55 310.95 435.45 285.8C442.1 292 450.7 300.9 468.15 319.25L471.65 322.9C491.2 343.35 503.15 354.9 514.8 363.9C537.55 381.3 558.5 387.45 576 367.45C580.7 362.1 585.5 355.7 592.15 346.3C592.6 345.75 593.95 343.8 595.75 341.2L608.85 322.55C625.7 299.05 638.1 285.5 647.25 281.05C648.11 280.57 649.04 280.21 650 280C651.95 280 656.85 282.5 663.7 288.25C672.68 295.74 682.67 307.06 695.04 323.17V323.19H695.06C695.06 323.19 695.08 323.22 695.1 323.25C696.5 325.15 722.71 360.16 729.1 367.4C746.6 387.5 767.6 381.2 789.7 363.7C801 354.75 812.55 343.1 831.15 322.8L834.8 318.8C850.5 301.6 858.7 292.75 864.8 286.7C871.55 311.55 875 337.7 875 364.35Z" fill="#F467B5"></path>
<path d="M951.58 817.7C927.43 788.9 852.48 802.9 786.58 858.2C731.45 904.44 688.64 961.42 675 998.3C669.43 1013.33 668.71 1025.03 673.98 1031.3C674.03 1031.36 674.08 1031.42 674.14 1031.48C697.16 1058.17 815.03 1030.17 882.98 973.1C948.88 917.8 975.73 846.5 951.58 817.7ZM498.46 858.2C432.56 802.9 357.66 788.9 333.46 817.7C309.36 846.45 336.16 917.8 402.06 973.1C470.21 1030.3 588.46 1058.3 611.11 1031.3C629.31 1009.65 576.11 923.3 498.46 858.2ZM951.58 817.7C927.43 788.9 852.48 802.9 786.58 858.2C731.45 904.44 688.64 961.42 675 998.3C669.43 1013.33 668.71 1025.03 673.98 1031.3C674.03 1031.36 674.08 1031.42 674.14 1031.48C697.16 1058.17 815.03 1030.17 882.98 973.1C948.88 917.8 975.73 846.5 951.58 817.7ZM951.58 817.7C927.43 788.9 852.48 802.9 786.58 858.2C731.45 904.44 688.64 961.42 675 998.3C669.43 1013.33 668.71 1025.03 673.98 1031.3C674.03 1031.36 674.08 1031.42 674.14 1031.48C697.16 1058.17 815.03 1030.17 882.98 973.1C948.88 917.8 975.73 846.5 951.58 817.7ZM498.46 858.2C432.56 802.9 357.66 788.9 333.46 817.7C309.36 846.45 336.16 917.8 402.06 973.1C470.21 1030.3 588.46 1058.3 611.11 1031.3C629.31 1009.65 576.11 923.3 498.46 858.2ZM498.46 858.2C432.56 802.9 357.66 788.9 333.46 817.7C309.36 846.45 336.16 917.8 402.06 973.1C470.21 1030.3 588.46 1058.3 611.11 1031.3C629.31 1009.65 576.11 923.3 498.46 858.2ZM951.58 817.7C927.43 788.9 852.48 802.9 786.58 858.2C731.45 904.44 688.64 961.42 675 998.3C669.43 1013.33 668.71 1025.03 673.98 1031.3C674.03 1031.36 674.08 1031.42 674.14 1031.48C697.16 1058.17 815.03 1030.17 882.98 973.1C948.88 917.8 975.73 846.5 951.58 817.7ZM951.58 817.7C927.43 788.9 852.48 802.9 786.58 858.2C731.45 904.44 688.64 961.42 675 998.3C669.43 1013.33 668.71 1025.03 673.98 1031.3C674.03 1031.36 674.08 1031.42 674.14 1031.48C697.16 1058.17 815.03 1030.17 882.98 973.1C948.88 917.8 975.73 846.5 951.58 817.7ZM498.46 858.2C432.56 802.9 357.66 788.9 333.46 817.7C309.36 846.45 336.16 917.8 402.06 973.1C470.21 1030.3 588.46 1058.3 611.11 1031.3C629.31 1009.65 576.11 923.3 498.46 858.2ZM498.46 858.2C432.56 802.9 357.66 788.9 333.46 817.7C309.36 846.45 336.16 917.8 402.06 973.1C470.21 1030.3 588.46 1058.3 611.11 1031.3C629.31 1009.65 576.11 923.3 498.46 858.2ZM951.58 817.7C927.43 788.9 852.48 802.9 786.58 858.2C731.45 904.44 688.64 961.42 675 998.3C669.43 1013.33 668.71 1025.03 673.98 1031.3C674.03 1031.36 674.08 1031.42 674.14 1031.48C697.16 1058.17 815.03 1030.17 882.98 973.1C948.88 917.8 975.73 846.5 951.58 817.7ZM951.58 817.7C927.43 788.9 852.48 802.9 786.58 858.2C731.45 904.44 688.64 961.42 675 998.3C669.43 1013.33 668.71 1025.03 673.98 1031.3C674.03 1031.36 674.08 1031.42 674.14 1031.48C697.16 1058.17 815.03 1030.17 882.98 973.1C948.88 917.8 975.73 846.5 951.58 817.7ZM498.46 858.2C432.56 802.9 357.66 788.9 333.46 817.7C309.36 846.45 336.16 917.8 402.06 973.1C470.21 1030.3 588.46 1058.3 611.11 1031.3C629.31 1009.65 576.11 923.3 498.46 858.2ZM650 0C291.02 0 0 291.02 0 650C0 1008.98 291.02 1300 650 1300C1008.98 1300 1300 1008.99 1300 650C1300 291.01 1008.99 0 650 0ZM915.13 1011.45C832.48 1080.78 695.16 1115.59 642.5 1070.37C589.89 1115.6 452.51 1080.78 369.86 1011.45C285.61 940.75 248.31 841.35 295.16 785.55C342.01 729.7 446.31 749.2 530.56 819.9H530.51C568.33 851.62 601.29 886.82 625 921.21V700C625 693.37 627.63 687.01 632.32 682.32C637.01 677.63 643.37 675 650 675C475.8 675 375 548.7 375 364.4C374.9 324.23 381.83 284.34 395.45 246.55C397.98 238.86 403.38 232.44 410.52 228.62C417.66 224.8 426 223.88 433.8 226.05C442.35 228.15 450.2 232.9 459.3 240.3C470.45 249.4 477.7 256.75 504.35 284.75L507.8 288.35C525.55 306.9 536.3 317.35 545.25 324.2L546.05 324.8L551.35 317.45L554.5 312.95C558.6 307.05 565.45 297.25 568.2 293.45C589.9 263.1 606.1 245.45 625.45 236.05C633.35 232.15 641.53 230.17 650 230.1C666.05 230.1 680.95 237.4 695.95 250.1C708.25 260.45 720.25 274 734.7 292.7C742.65 303.35 750.67 313.95 758.75 324.5C767.25 317.75 777.55 307.35 794.25 289.1L797.9 285.15C823.7 256.9 830.4 249.75 841.2 240.6C850 233.1 857.7 228.25 866.2 226.1C873.99 223.95 882.31 224.87 889.44 228.67C896.57 232.48 901.96 238.88 904.5 246.55C918.14 284.34 925.08 324.22 925 364.4C925 548.7 824.2 675 650 675C656.63 675 662.99 677.63 667.68 682.32C672.37 687.01 675 693.37 675 700V900.9C696.83 873.13 724.09 845.4 754.48 819.9C838.68 749.2 943.03 729.7 989.88 785.55C1036.73 841.35 999.38 940.75 915.13 1011.45ZM786.58 858.2C731.45 904.44 688.64 961.42 675 998.3C669.43 1013.33 668.71 1025.03 673.98 1031.3C674.03 1031.36 674.08 1031.42 674.14 1031.48C697.16 1058.17 815.03 1030.17 882.98 973.1C948.88 917.8 975.73 846.5 951.58 817.7C927.43 788.9 852.48 802.9 786.58 858.2ZM498.46 858.2C432.56 802.9 357.66 788.9 333.46 817.7C309.36 846.45 336.16 917.8 402.06 973.1C470.21 1030.3 588.46 1058.3 611.11 1031.3C629.31 1009.65 576.11 923.3 498.46 858.2ZM498.46 858.2C432.56 802.9 357.66 788.9 333.46 817.7C309.36 846.45 336.16 917.8 402.06 973.1C470.21 1030.3 588.46 1058.3 611.11 1031.3C629.31 1009.65 576.11 923.3 498.46 858.2ZM951.58 817.7C927.43 788.9 852.48 802.9 786.58 858.2C731.45 904.44 688.64 961.42 675 998.3C669.43 1013.33 668.71 1025.03 673.98 1031.3C674.03 1031.36 674.08 1031.42 674.14 1031.48C697.16 1058.17 815.03 1030.17 882.98 973.1C948.88 917.8 975.73 846.5 951.58 817.7ZM951.58 817.7C927.43 788.9 852.48 802.9 786.58 858.2C731.45 904.44 688.64 961.42 675 998.3C669.43 1013.33 668.71 1025.03 673.98 1031.3C674.03 1031.36 674.08 1031.42 674.14 1031.48C697.16 1058.17 815.03 1030.17 882.98 973.1C948.88 917.8 975.73 846.5 951.58 817.7ZM498.46 858.2C432.56 802.9 357.66 788.9 333.46 817.7C309.36 846.45 336.16 917.8 402.06 973.1C470.21 1030.3 588.46 1058.3 611.11 1031.3C629.31 1009.65 576.11 923.3 498.46 858.2ZM498.46 858.2C432.56 802.9 357.66 788.9 333.46 817.7C309.36 846.45 336.16 917.8 402.06 973.1C470.21 1030.3 588.46 1058.3 611.11 1031.3C629.31 1009.65 576.11 923.3 498.46 858.2ZM951.58 817.7C927.43 788.9 852.48 802.9 786.58 858.2C731.45 904.44 688.64 961.42 675 998.3C669.43 1013.33 668.71 1025.03 673.98 1031.3C674.03 1031.36 674.08 1031.42 674.14 1031.48C697.16 1058.17 815.03 1030.17 882.98 973.1C948.88 917.8 975.73 846.5 951.58 817.7ZM951.58 817.7C927.43 788.9 852.48 802.9 786.58 858.2C731.45 904.44 688.64 961.42 675 998.3C669.43 1013.33 668.71 1025.03 673.98 1031.3C674.03 1031.36 674.08 1031.42 674.14 1031.48C697.16 1058.17 815.03 1030.17 882.98 973.1C948.88 917.8 975.73 846.5 951.58 817.7ZM498.46 858.2C432.56 802.9 357.66 788.9 333.46 817.7C309.36 846.45 336.16 917.8 402.06 973.1C470.21 1030.3 588.46 1058.3 611.11 1031.3C629.31 1009.65 576.11 923.3 498.46 858.2ZM498.46 858.2C432.56 802.9 357.66 788.9 333.46 817.7C309.36 846.45 336.16 917.8 402.06 973.1C470.21 1030.3 588.46 1058.3 611.11 1031.3C629.31 1009.65 576.11 923.3 498.46 858.2ZM951.58 817.7C927.43 788.9 852.48 802.9 786.58 858.2C731.45 904.44 688.64 961.42 675 998.3C669.43 1013.33 668.71 1025.03 673.98 1031.3C674.03 1031.36 674.08 1031.42 674.14 1031.48C697.16 1058.17 815.03 1030.17 882.98 973.1C948.88 917.8 975.73 846.5 951.58 817.7ZM951.58 817.7C927.43 788.9 852.48 802.9 786.58 858.2C731.45 904.44 688.64 961.42 675 998.3C669.43 1013.33 668.71 1025.03 673.98 1031.3C674.03 1031.36 674.08 1031.42 674.14 1031.48C697.16 1058.17 815.03 1030.17 882.98 973.1C948.88 917.8 975.73 846.5 951.58 817.7ZM498.46 858.2C432.56 802.9 357.66 788.9 333.46 817.7C309.36 846.45 336.16 917.8 402.06 973.1C470.21 1030.3 588.46 1058.3 611.11 1031.3C629.31 1009.65 576.11 923.3 498.46 858.2Z" fill="#F467B5"></path>
</svg><style>@media (prefers-color-scheme: light) { :root { filter: none; } }
@media (prefers-color-scheme: dark) { :root { filter: none; } }
</style></svg>